<svg width="48" height="48" viewBox="0 0 48 48" fill="none" xmlns="http://www.w3.org/2000/svg">
<rect width="48" height="48" rx="24" fill="#FAFAFA"/>
<path d="M33.3332 34.5C33.3332 32.8718 33.3332 32.0578 33.1322 31.3953C32.6798 29.9039 31.5126 28.7367 30.0212 28.2843C29.3587 28.0833 28.5447 28.0833 26.9165 28.0833H21.0832C19.455 28.0833 18.6409 28.0833 17.9785 28.2843C16.487 28.7367 15.3199 29.9039 14.8675 31.3953C14.6665 32.0578 14.6665 32.8718 14.6665 34.5M29.2498 18.75C29.2498 21.6495 26.8993 24 23.9998 24C21.1003 24 18.7498 21.6495 18.7498 18.75C18.7498 15.8505 21.1003 13.5 23.9998 13.5C26.8993 13.5 29.2498 15.8505 29.2498 18.75Z" stroke="#015873" stroke-width="2.33333" stroke-linecap="round" stroke-linejoin="round"/>
</svg>
