<svg width="24" height="24" viewBox="0 0 24 24" fill="none" xmlns="http://www.w3.org/2000/svg">
<path d="M9 12H9.01M15 12H15.01M10 16C10.5 16.3 11.2 16.5 12 16.5C12.8 16.5 13.5 16.3 14 16M19 6.3C19.7391 7.22644 20.2862 8.2876 20.6128 9.42142C20.6767 9.64324 20.7086 9.75415 20.735 9.81455C20.7848 9.92829 20.7503 9.86509 20.8191 9.9684C20.8556 10.0233 21.048 10.243 21.4328 10.6824C21.5026 10.762 21.5662 10.8474 21.6229 10.9378C21.8224 11.2562 21.9282 11.6243 21.9282 12C21.9282 12.3757 21.8224 12.7438 21.6229 13.0622C21.5627 13.1582 21.4947 13.2486 21.4198 13.3324C21.0405 13.757 20.8509 13.9693 20.8143 14.0227C20.7458 14.123 20.7801 14.0622 20.7297 14.1727C20.7029 14.2316 20.6697 14.3397 20.6033 14.5559C20.0788 16.2633 19.0559 17.7823 17.6577 18.9125C16.0562 20.207 14.0592 20.9132 12 20.9132C9.94076 20.9132 7.94379 20.207 6.34231 18.9125C4.94409 17.7823 3.92118 16.2633 3.39673 14.5559C3.33033 14.3397 3.29712 14.2316 3.27028 14.1727C3.21994 14.0622 3.25424 14.123 3.18568 14.0227C3.14913 13.9693 2.95949 13.757 2.58022 13.3324C2.50533 13.2486 2.43734 13.1582 2.37714 13.0622C2.17761 12.7438 2.07178 12.3757 2.07178 12C2.07178 11.6243 2.17761 11.2562 2.37714 10.9378C2.43559 10.8446 2.50139 10.7567 2.57371 10.6749C2.95576 10.243 3.14679 10.027 3.18334 9.97289C3.25204 9.8711 3.21763 9.9331 3.26767 9.82096C3.29429 9.7613 3.32688 9.65179 3.39206 9.43277C3.90396 7.71265 4.92072 6.17843 6.31902 5.03437C7.92216 3.72271 9.92866 3.00418 12 3C14 3 15.5 4.1 15.5 5.5C15.5 6.9 14.6 8 13.5 8C12.7 8 12 7.6 12 7" stroke="black" stroke-width="2" stroke-linecap="round" stroke-linejoin="round"/>
</svg>
