<svg width="20" height="20" viewBox="0 0 20 20" fill="none" xmlns="http://www.w3.org/2000/svg">
<path d="M8 3.33334H4.16667C3.72464 3.33334 3.30072 3.50894 2.98816 3.8215C2.67559 4.13406 2.5 4.55798 2.5 5.00001V15C2.5 15.442 2.67559 15.8659 2.98816 16.1785C3.30072 16.4911 3.72464 16.6667 4.16667 16.6667H10.8333C11.2754 16.6667 11.6993 16.4911 12.0118 16.1785C12.3244 15.8659 12.5 15.442 12.5 15V11.6667" stroke="#A1A1AA" stroke-width="1.5" stroke-linecap="round" stroke-linejoin="round"/>
<path d="M6.66667 8.33334H15.8333C16.2754 8.33334 16.6993 8.50894 17.0118 8.8215C17.3244 9.13406 17.5 9.55798 17.5 10.00001V15C17.5 15.442 17.3244 15.8659 17.0118 16.1785C16.6993 16.4911 16.2754 16.6667 15.8333 16.6667H6.66667C6.22464 16.6667 5.80072 16.4911 5.48816 16.1785C5.17559 15.8659 5 15.442 5 15V10C5 9.55798 5.17559 9.13406 5.48816 8.8215C5.80072 8.50894 6.22464 8.33334 6.66667 8.33334Z" stroke="#A1A1AA" stroke-width="1.5" stroke-linecap="round" stroke-linejoin="round"/>
</svg> 