<svg width="24" height="24" viewBox="0 0 24 24" fill="none" xmlns="http://www.w3.org/2000/svg">
<path d="M6 11.3401V9.39206H14C14.1889 9.26435 14.3333 8.74268 14.5333 8.20699C14.5333 7.4559 14.2461 7.17452 13.6717 6.71347C13.0972 6.25245 12.68 6.02193 11.7533 6.02193C10.9267 6.02193 10.1389 6.18802 9.39002 6.5203C8.64109 6.85254 7.47335 7.64964 7 8.09334V5.17126C7.64665 4.86605 8.74665 4.45155 9.5 4.28488C10.2533 4.11825 11.0544 4.03491 11.9033 4.03491C13.39 4.03491 14.6111 4.46078 15.5667 5.31251C16.5222 6.16424 17 7.21889 17 8.47647C17 9.08685 17.1067 8.94618 16.8333 9.39206H18V11.3401H15.1667C14.7755 11.5652 14.1878 11.9657 13.6633 12.1907C12.9856 12.4916 12.4822 12.4202 12 12.6388L18 12.6388V14.5868H9.83335C9.56 14.9051 9.39335 15.2308 9.39335 15.8888C9.39335 16.6658 9.51499 16.7871 10.0917 17.2265C10.6683 17.6659 11.1889 18.0479 12.32 18.0479C13.1067 18.0479 13.9261 17.8666 14.7783 17.5041C15.6306 17.1415 16.3289 16.7081 17 16.0479V18.8076C16.3111 19.1432 15.7889 19.4613 15.0067 19.6907C14.2245 19.9202 13.2778 20.0349 12.1667 20.0349C11.2311 20.0349 10.4517 19.9159 9.82834 19.6778C9.20501 19.4397 8.64665 19.1009 8.15335 18.6616C7.71112 18.2611 7.36834 17.806 7.12501 17.2963C6.88168 16.7865 6.76 16.2362 6.76 15.6453C6.76 15.1973 6.87335 14.9527 7 14.5868H6V12.6388L8.33335 12.6388C8.92665 12.1886 9.54665 11.8596 10.8333 11.3401H6Z" fill="black"/>
</svg>
