<svg width="24" height="24" viewBox="0 0 24 24" fill="none" xmlns="http://www.w3.org/2000/svg">
<path d="M9.99998 5.17235C9.99998 3.78235 8.42298 2.67936 6.49998 3.00036C3.67698 3.47036 2.38698 9.00636 2.49998 10.0004C2.57998 10.7034 4.22498 11.7224 6.15598 11.0004C7.41698 10.5284 8.11598 9.55036 8.49998 8.50036M14.2671 5.17235C14.2671 3.78235 15.8441 2.67936 17.7671 3.00036C20.5901 3.47036 21.8801 9.00636 21.7671 10.0004C21.6871 10.7034 20.0421 11.7224 18.1111 11.0004C16.8501 10.5284 16.2561 9.55036 15.8721 8.50036M8 14.0002V14.5002M16 14.0002V14.5002M4.42001 11.2473C4.14014 12.328 3.999 13.44 4.00001 14.5563C4.00001 18.7283 7.58201 21.0003 12 21.0003C16.418 21.0003 20 18.7283 20 14.5563C20 13.4953 19.838 12.3563 19.507 11.2473M10.264 5.16533C10.8358 5.053 11.4173 4.99773 12 5.00033C12.78 5.00033 13.5 5.10833 14.161 5.30633M12.2197 16.7806V16.7806C12.4154 16.5849 12.2768 16.2502 12 16.2502V16.2502C11.7232 16.2502 11.5846 16.5849 11.7803 16.7806V16.7806C11.9017 16.9019 12.0983 16.9019 12.2197 16.7806Z" stroke="black" stroke-width="2" stroke-linecap="round" stroke-linejoin="round"/>
</svg>
