<svg width="24" height="24" viewBox="0 0 24 24" fill="none" xmlns="http://www.w3.org/2000/svg">
<g clip-path="url(#clip0_252_6941)">
<path d="M14.4001 14.3999L9.6001 9.59985M21.5001 21.4999L20.1001 20.0999M3.9 3.89976L2.5 2.49976M18.6569 21.4847C18.2819 21.8598 17.7732 22.0706 17.2428 22.0707C16.7123 22.0708 16.2035 21.8602 15.8284 21.4852C15.4533 21.1101 15.2424 20.6015 15.2423 20.071C15.2423 19.5406 15.4529 19.0318 15.8279 18.6567L14.0609 20.4247C13.6858 20.7998 13.1769 21.0106 12.6464 21.0106C12.1159 21.0106 11.607 20.7998 11.2319 20.4247C10.8568 20.0495 10.646 19.5407 10.646 19.0102C10.646 18.4796 10.8568 17.9708 11.2319 17.5957L17.5959 11.2317C17.9711 10.8565 18.4799 10.6458 19.0104 10.6458C19.5409 10.6458 20.0498 10.8565 20.4249 11.2317C20.8 11.6068 21.0108 12.1156 21.0108 12.6462C21.0108 13.1767 20.8 13.6855 20.4249 14.0607L18.6569 15.8277C19.032 15.4526 19.5408 15.242 20.0713 15.2421C20.6017 15.2422 21.1104 15.453 21.4854 15.8282C21.8604 16.2033 22.071 16.7121 22.071 17.2425C22.0709 17.773 21.8601 18.2816 21.4849 18.6567L18.6569 21.4847ZM6.40376 12.7678C6.02861 13.1429 5.5198 13.3537 4.98926 13.3537C4.45872 13.3537 3.94991 13.1429 3.57476 12.7678C3.19961 12.3926 2.98886 11.8838 2.98886 11.3533C2.98886 10.8227 3.19961 10.3139 3.57476 9.93876L5.34276 8.17176C5.15701 8.35745 4.9365 8.50474 4.69382 8.6052C4.45115 8.70567 4.19106 8.75736 3.92841 8.75731C3.39796 8.75722 2.88928 8.54641 2.51426 8.17126C2.32857 7.98551 2.18129 7.765 2.08082 7.52232C1.98035 7.27965 1.92866 7.01956 1.92871 6.75691C1.9288 6.22646 2.13961 5.71778 2.51476 5.34276L5.34276 2.51476C5.71778 2.13961 6.22646 1.9288 6.75691 1.92871C7.01956 1.92866 7.27965 1.98035 7.52232 2.08082C7.765 2.18129 7.98551 2.32857 8.17126 2.51426C8.35702 2.69995 8.50438 2.92041 8.60493 3.16305C8.70549 3.40569 8.75727 3.66576 8.75731 3.92841C8.75736 4.19106 8.70567 4.45115 8.6052 4.69382C8.50474 4.9365 8.35745 5.15701 8.17176 5.34276L9.93876 3.57476C10.3139 3.19961 10.8227 2.98886 11.3533 2.98886C11.8838 2.98886 12.3926 3.19961 12.7678 3.57476C13.1429 3.94991 13.3537 4.45872 13.3537 4.98926C13.3537 5.5198 13.1429 6.02861 12.7678 6.40376L6.40376 12.7678Z" stroke="#09090B" stroke-width="2" stroke-linecap="round" stroke-linejoin="round"/>
</g>
<defs>
<clipPath id="clip0_252_6941">
<rect width="24" height="24" fill="white"/>
</clipPath>
</defs>
</svg>
