A<svg width="40" height="40" viewBox="0 0 40 40" fill="none" xmlns="http://www.w3.org/2000/svg">
<rect width="40" height="40" rx="20" fill="#F4F4F5"/>
<path d="M20.4167 12.5H16.5C15.0999 12.5 14.3998 12.5 13.865 12.7725C13.3946 13.0122 13.0122 13.3946 12.7725 13.865C12.5 14.3998 12.5 15.0999 12.5 16.5V23.5C12.5 24.9002 12.5 25.6002 12.7725 26.135C13.0122 26.6054 13.3946 26.9879 13.865 27.2275C14.3998 27.5 15.0999 27.5 16.5 27.5H24.1667C24.9416 27.5 25.3291 27.5 25.647 27.4148C26.5098 27.1837 27.1836 26.5098 27.4148 25.6471C27.5 25.3292 27.5 24.9417 27.5 24.1667M25.8333 16.6667V11.6667M23.3333 14.1667H28.3333M18.75 17.0834C18.75 18.0038 18.0038 18.75 17.0833 18.75C16.1629 18.75 15.4167 18.0038 15.4167 17.0834C15.4167 16.1629 16.1629 15.4167 17.0833 15.4167C18.0038 15.4167 18.75 16.1629 18.75 17.0834ZM22.4917 19.9318L15.4426 26.3401C15.0461 26.7005 14.8479 26.8807 14.8304 27.0368C14.8152 27.1722 14.867 27.3064 14.9693 27.3963C15.0873 27.5 15.3552 27.5 15.8911 27.5H23.7133C24.9126 27.5 25.5123 27.5 25.9833 27.2985C26.5745 27.0456 27.0456 26.5746 27.2985 25.9833C27.5 25.5123 27.5 24.9126 27.5 23.7133C27.5 23.3098 27.5 23.108 27.4559 22.9201C27.4005 22.684 27.2941 22.4628 27.1444 22.272C27.0252 22.1202 26.8677 21.9941 26.5526 21.7421L24.2215 19.8772C23.9062 19.6249 23.7485 19.4988 23.5748 19.4543C23.4218 19.415 23.2607 19.4201 23.1104 19.4689C22.94 19.5243 22.7905 19.6601 22.4917 19.9318Z" stroke="#015873" stroke-width="1.66667" stroke-linecap="round" stroke-linejoin="round"/>
</svg>
