<svg width="24" height="24" viewBox="0 0 24 24" fill="none" xmlns="http://www.w3.org/2000/svg">
<path d="M8.4 3H4.6C4.03995 3 3.75992 3 3.54601 3.06228C3.35785 3.11707 3.20487 3.20448 3.10899 3.31201C3 3.43424 3 3.59426 3 3.91429V6.08571C3 6.40574 3 6.56576 3.10899 6.68799C3.20487 6.79552 3.35785 6.88293 3.54601 6.93772C3.75992 7 4.03995 7 4.6 7H8.4C8.96005 7 9.24008 7 9.45399 6.93772C9.64215 6.88293 9.79513 6.79552 9.89101 6.68799C10 6.56576 10 6.40574 10 6.08571V3.91429C10 3.59426 10 3.43424 9.89101 3.31201C9.79513 3.20448 9.64215 3.11707 9.45399 3.06228C9.24008 3 8.96005 3 8.4 3Z" stroke="black" stroke-width="2" stroke-linecap="round" stroke-linejoin="round"/>
<path d="M19.4 3H15.6C15.0399 3 14.7599 3 14.546 3.06228C14.3578 3.11707 14.2049 3.20448 14.109 3.31201C14 3.43424 14 3.59426 14 3.91429V6.08571C14 6.40574 14 6.56576 14.109 6.68799C14.2049 6.79552 14.3578 6.88293 14.546 6.93772C14.7599 7 15.0399 7 15.6 7H19.4C19.9601 7 20.2401 7 20.454 6.93772C20.6422 6.88293 20.7951 6.79552 20.891 6.68799C21 6.56576 21 6.40574 21 6.08571V3.91429C21 3.59426 21 3.43424 20.891 3.31201C20.7951 3.20448 20.6422 3.11707 20.454 3.06228C20.2401 3 19.9601 3 19.4 3Z" stroke="black" stroke-width="2" stroke-linecap="round" stroke-linejoin="round"/>
<path d="M8.4 10H4.6C4.03995 10 3.75992 10 3.54601 10.0623C3.35785 10.1171 3.20487 10.2045 3.10899 10.312C3 10.4342 3 10.5943 3 10.9143V13.0857C3 13.4057 3 13.5658 3.10899 13.688C3.20487 13.7955 3.35785 13.8829 3.54601 13.9377C3.75992 14 4.03995 14 4.6 14H8.4C8.96005 14 9.24008 14 9.45399 13.9377C9.64215 13.8829 9.79513 13.7955 9.89101 13.688C10 13.5658 10 13.4057 10 13.0857V10.9143C10 10.5943 10 10.4342 9.89101 10.312C9.79513 10.2045 9.64215 10.1171 9.45399 10.0623C9.24008 10 8.96005 10 8.4 10Z" stroke="black" stroke-width="2" stroke-linecap="round" stroke-linejoin="round"/>
<path d="M19.4 10H15.6C15.0399 10 14.7599 10 14.546 10.0623C14.3578 10.1171 14.2049 10.2045 14.109 10.312C14 10.4342 14 10.5943 14 10.9143V13.0857C14 13.4057 14 13.5658 14.109 13.688C14.2049 13.7955 14.3578 13.8829 14.546 13.9377C14.7599 14 15.0399 14 15.6 14H19.4C19.9601 14 20.2401 14 20.454 13.9377C20.6422 13.8829 20.7951 13.7955 20.891 13.688C21 13.5658 21 13.4057 21 13.0857V10.9143C21 10.5943 21 10.4342 20.891 10.312C20.7951 10.2045 20.6422 10.1171 20.454 10.0623C20.2401 10 19.9601 10 19.4 10Z" stroke="black" stroke-width="2" stroke-linecap="round" stroke-linejoin="round"/>
<path d="M8.4 17H4.6C4.03995 17 3.75992 17 3.54601 17.0623C3.35785 17.1171 3.20487 17.2045 3.10899 17.312C3 17.4342 3 17.5943 3 17.9143V20.0857C3 20.4057 3 20.5658 3.10899 20.688C3.20487 20.7955 3.35785 20.8829 3.54601 20.9377C3.75992 21 4.03995 21 4.6 21H8.4C8.96005 21 9.24008 21 9.45399 20.9377C9.64215 20.8829 9.79513 20.7955 9.89101 20.688C10 20.5658 10 20.4057 10 20.0857V17.9143C10 17.5943 10 17.4342 9.89101 17.312C9.79513 17.2045 9.64215 17.1171 9.45399 17.0623C9.24008 17 8.96005 17 8.4 17Z" stroke="black" stroke-width="2" stroke-linecap="round" stroke-linejoin="round"/>
<path d="M19.4 17H15.6C15.0399 17 14.7599 17 14.546 17.0623C14.3578 17.1171 14.2049 17.2045 14.109 17.312C14 17.4342 14 17.5943 14 17.9143V20.0857C14 20.4057 14 20.5658 14.109 20.688C14.2049 20.7955 14.3578 20.8829 14.546 20.9377C14.7599 21 15.0399 21 15.6 21H19.4C19.9601 21 20.2401 21 20.454 20.9377C20.6422 20.8829 20.7951 20.7955 20.891 20.688C21 20.5658 21 20.4057 21 20.0857V17.9143C21 17.5943 21 17.4342 20.891 17.312C20.7951 17.2045 20.6422 17.1171 20.454 17.0623C20.2401 17 19.9601 17 19.4 17Z" stroke="black" stroke-width="2" stroke-linecap="round" stroke-linejoin="round"/>
</svg>
