<svg width="20" height="20" viewBox="0 0 20 20" fill="none" xmlns="http://www.w3.org/2000/svg">
<path d="M17.4997 9.58333C17.4997 13.4953 14.3284 16.6667 10.4164 16.6667C9.51908 16.6667 8.66073 16.4998 7.87069 16.1954C7.72625 16.1398 7.65402 16.112 7.59659 16.0987C7.5401 16.0857 7.49921 16.0803 7.44128 16.0781C7.38238 16.0758 7.31777 16.0825 7.18853 16.0958L2.92101 16.537C2.51414 16.579 2.31071 16.6001 2.19071 16.5269C2.08618 16.4631 2.01499 16.3566 1.99604 16.2356C1.97429 16.0968 2.0715 15.9168 2.26593 15.557L3.62897 13.034C3.74122 12.8262 3.79735 12.7223 3.82277 12.6225C3.84788 12.5238 3.85395 12.4527 3.84592 12.3512C3.83779 12.2484 3.7927 12.1147 3.70254 11.8472C3.46293 11.1363 3.33306 10.375 3.33306 9.58333C3.33306 5.67132 6.50438 2.5 10.4164 2.5C14.3284 2.5 17.4997 5.67132 17.4997 9.58333Z" stroke="var(--Zinc-400, #A1A1AA)" stroke-width="2" stroke-linecap="round" stroke-linejoin="round"/>
</svg>
