<svg width="24" height="24" viewBox="0 0 24 24" fill="none" xmlns="http://www.w3.org/2000/svg">
<path d="M20.38 3.46L18.106 2.70199C17.4635 2.48781 17.1422 2.38072 16.9395 2.39688C16.6849 2.41717 16.651 2.42943 16.4423 2.57669C16.2761 2.69396 15.984 3.16521 15.3997 4.10771C15.2389 4.36706 15.0477 4.60916 14.8285 4.82843C14.0783 5.57857 13.0609 6 12 6C10.9392 6 9.92176 5.57857 9.17161 4.82843C8.95235 4.60916 8.76117 4.36706 8.60039 4.10771C8.01608 3.16521 7.72393 2.69396 7.55777 2.57669C7.34911 2.42943 7.3152 2.41717 7.06061 2.39688C6.85788 2.38072 6.53661 2.48781 5.89408 2.70199L3.62004 3.46C3.16742 3.61079 2.78362 3.91842 2.53789 4.32734C2.29217 4.73627 2.20072 5.21956 2.28004 5.69L2.86004 9.16C2.89812 9.39491 3.01872 9.60855 3.20018 9.76251C3.38164 9.91648 3.61206 10.0007 3.85004 10H4.40004C4.96009 10 5.24012 10 5.45403 10.109C5.64219 10.2049 5.79517 10.3578 5.89105 10.546C6.00004 10.7599 6.00004 11.0399 6.00004 11.6V20C6.00004 21.1 6.90004 22 8.00004 22H16C16.5305 22 17.0392 21.7893 17.4143 21.4142C17.7893 21.0391 18 20.5304 18 20V11.6C18 11.0399 18 10.7599 18.109 10.546C18.2049 10.3578 18.3579 10.2049 18.546 10.109C18.76 10 19.04 10 19.6 10H20.15C20.388 10.0007 20.6184 9.91648 20.7999 9.76251C20.9814 9.60855 21.102 9.39491 21.14 9.16L21.72 5.69C21.7994 5.21956 21.7079 4.73627 21.4622 4.32734C21.2165 3.91842 20.8327 3.61079 20.38 3.46Z" stroke="black" stroke-width="2" stroke-linecap="round" stroke-linejoin="round"/>
</svg>
