<svg width="109" height="40" viewBox="0 0 109 40" fill="none" xmlns="http://www.w3.org/2000/svg">
<path d="M4 8H26.7502V10.9425H4V8Z" fill="white"/>
<path d="M4 29.0575H26.7502V32H4V29.0575Z" fill="white"/>
<path d="M8.88168 29.1494H4L22.3607 10.9425H26.7502C19.9531 18.0097 15.82 21.9354 8.88168 29.1494Z" fill="white"/>
<path d="M55.3715 13.1498V8L73.7184 27.3693V32C66.5969 24.8295 62.641 20.4694 55.3715 13.1498Z" fill="white"/>
<path d="M46.5649 17.7471V20.6897H31.1535V17.7471L46.5649 17.7471Z" fill="white"/>
<path d="M46.5649 29.0575V32L31.1535 32V29.0575H46.5649Z" fill="white"/>
<path d="M46.5649 8V10.9425L31.1535 10.9425V8L46.5649 8Z" fill="white"/>
<path d="M55.3715 32H52.436V8L55.3715 8V32Z" fill="white"/>
<path d="M76.654 32H73.7184V8L76.654 8V32Z" fill="white"/>
<path fill-rule="evenodd" clip-rule="evenodd" d="M93.0286 8C99.6402 8 105 13.3726 105 20C105 26.6274 99.6402 32 93.0286 32C86.417 32 81.0572 26.6274 81.0572 20C81.0572 13.3726 86.417 8 93.0286 8ZM93.0286 10.7429C87.9282 10.7429 83.7935 14.8874 83.7935 20C83.7935 25.1126 87.9282 29.2571 93.0286 29.2571C98.129 29.2571 102.264 25.1126 102.264 20C102.264 14.8874 98.129 10.7429 93.0286 10.7429Z" fill="white"/>
</svg>
