<svg width="136" height="32" viewBox="0 0 136 32" fill="none" xmlns="http://www.w3.org/2000/svg">
<path d="M0 1.07185e-06H30.634V3.92337H0V1.07185e-06Z" fill="#015873"/>
<path d="M0 28.0766H30.634V32H0V28.0766Z" fill="#015873"/>
<path d="M6.57335 28.1992H0L24.7233 3.92337H30.634C21.4814 13.3463 15.9161 18.5805 6.57335 28.1992Z" fill="#015873"/>
<path d="M69.1735 6.86647V0L93.8783 25.8257V32C84.2889 22.4393 78.9622 16.6258 69.1735 6.86647Z" fill="#015873"/>
<path d="M57.3152 12.9962V16.9195H36.5631V12.9962L57.3152 12.9962Z" fill="#015873"/>
<path d="M57.3152 28.0766V32L36.5631 32V28.0766L57.3152 28.0766Z" fill="#015873"/>
<path d="M57.3152 1.07185e-06V3.92337L36.5631 3.92337V1.71496e-07L57.3152 1.07185e-06Z" fill="#015873"/>
<path d="M69.1735 32H65.2207V1.41484e-06L69.1735 0V32Z" fill="#015873"/>
<path d="M97.8311 32H93.8783V1.41484e-06L97.8311 1.07185e-06V32Z" fill="#015873"/>
<path fill-rule="evenodd" clip-rule="evenodd" d="M119.88 1.07185e-06C128.783 1.07185e-06 136 7.16344 136 16C136 24.8366 128.783 32 119.88 32C110.977 32 103.76 24.8366 103.76 16C103.76 7.16344 110.977 1.07185e-06 119.88 1.07185e-06ZM119.88 3.65714C113.012 3.65714 107.445 9.18323 107.445 16C107.445 22.8168 113.012 28.3429 119.88 28.3429C126.748 28.3429 132.315 22.8168 132.315 16C132.315 9.18323 126.748 3.65714 119.88 3.65714Z" fill="#015873"/>
</svg>
